<svg width="24" height="24" viewBox="0 0 24 24" fill="none" xmlns="http://www.w3.org/2000/svg">
<g clip-path="url(#clip0_14781_2474)">
<rect width="24" height="24" rx="8" fill="white"/>
<g clip-path="url(#clip1_14781_2474)">
<rect width="24" height="24" fill="url(#paint0_linear_14781_2474)"/>
<path fill-rule="evenodd" clip-rule="evenodd" d="M18.9818 0V4.60105C18.9818 8.52112 17.269 12.2455 14.2927 14.7968C12.2836 16.519 11.1273 19.0332 11.1273 21.6795V24H6.76365V21.6795C6.76365 17.7594 8.47653 14.035 11.4528 11.4838C13.4619 9.76151 14.6182 7.24733 14.6182 4.60105V0H18.9818Z" fill="white"/>
<path fill-rule="evenodd" clip-rule="evenodd" d="M6.76363 27.9273L6.76364 -1.90741e-07L11.1273 0L11.1273 27.9273L6.76363 27.9273Z" fill="white"/>
<path fill-rule="evenodd" clip-rule="evenodd" d="M7.63636 27.9273L7.63636 -1.14444e-07L10.2545 0L10.2545 27.9273L7.63636 27.9273Z" fill="#E4AB18"/>
<path fill-rule="evenodd" clip-rule="evenodd" d="M18.1091 0V4.60105C18.1091 8.26637 16.5075 11.7487 13.7247 14.1342C11.5222 16.0222 10.2545 18.7785 10.2545 21.6795V24H7.63636V21.6795C7.63636 18.0142 9.23792 14.5318 12.0207 12.1464C14.2233 10.2583 15.4909 7.50209 15.4909 4.60105V0H18.1091Z" fill="#E4AB18"/>
<path d="M5.42064 16.2084C5.62965 15.8335 6.15217 15.8335 6.36117 16.2084L8.65371 20.3202C8.86272 20.695 8.60146 21.1636 8.18345 21.1636H3.59837C3.18036 21.1636 2.9191 20.695 3.12811 20.3202L5.42064 16.2084Z" fill="#C53301"/>
<path fill-rule="evenodd" clip-rule="evenodd" d="M5.89091 17.1571L4.14365 20.2909H7.63817L5.89091 17.1571ZM6.36117 16.2084C6.15217 15.8335 5.62965 15.8335 5.42064 16.2084L3.12811 20.3202C2.9191 20.695 3.18036 21.1636 3.59837 21.1636H8.18345C8.60146 21.1636 8.86272 20.695 8.65371 20.3202L6.36117 16.2084Z" fill="white"/>
<path d="M16.5818 3.70907C16.5818 3.46807 16.7772 3.27271 17.0182 3.27271H20.9455C21.1865 3.27271 21.3818 3.46807 21.3818 3.70907V7.63634C21.3818 7.87734 21.1865 8.07271 20.9455 8.07271H17.0182C16.7772 8.07271 16.5818 7.87734 16.5818 7.63634V3.70907Z" fill="#41AEC0"/>
<path fill-rule="evenodd" clip-rule="evenodd" d="M17.4545 4.14543V7.19998H20.5091V4.14543H17.4545ZM17.0182 3.27271C16.7772 3.27271 16.5818 3.46807 16.5818 3.70907V7.63634C16.5818 7.87734 16.7772 8.07271 17.0182 8.07271H20.9455C21.1865 8.07271 21.3818 7.87734 21.3818 7.63634V3.70907C21.3818 3.46807 21.1865 3.27271 20.9455 3.27271H17.0182Z" fill="white"/>
<path d="M8.29091 5.67275C8.29091 7.11873 7.11871 8.29093 5.67273 8.29093C4.22675 8.29093 3.05455 7.11873 3.05455 5.67275C3.05455 4.22677 4.22675 3.05457 5.67273 3.05457C7.11871 3.05457 8.29091 4.22677 8.29091 5.67275Z" fill="#C53301"/>
<path fill-rule="evenodd" clip-rule="evenodd" d="M5.67273 7.4182C6.63672 7.4182 7.41818 6.63674 7.41818 5.67275C7.41818 4.70876 6.63672 3.92729 5.67273 3.92729C4.70874 3.92729 3.92727 4.70876 3.92727 5.67275C3.92727 6.63674 4.70874 7.4182 5.67273 7.4182ZM5.67273 8.29093C7.11871 8.29093 8.29091 7.11873 8.29091 5.67275C8.29091 4.22677 7.11871 3.05457 5.67273 3.05457C4.22675 3.05457 3.05455 4.22677 3.05455 5.67275C3.05455 7.11873 4.22675 8.29093 5.67273 8.29093Z" fill="white"/>
</g>
</g>
<defs>
<linearGradient id="paint0_linear_14781_2474" x1="36.5" y1="-10.5" x2="-11.3353" y2="7.21315" gradientUnits="userSpaceOnUse">
<stop stop-color="#3E3283"/>
<stop offset="0.420115" stop-color="#1B7DA3"/>
<stop offset="0.659575" stop-color="#06A9B6"/>
<stop offset="0.828396" stop-color="#57C3CB"/>
<stop offset="0.860925" stop-color="#73CCD3"/>
<stop offset="1" stop-color="#EAF2F2"/>
</linearGradient>
<clipPath id="clip0_14781_2474">
<rect width="24" height="24" rx="8" fill="white"/>
</clipPath>
<clipPath id="clip1_14781_2474">
<rect width="24" height="24" fill="white"/>
</clipPath>
</defs>
</svg>
